<?xml version="1.0" encoding="UTF-8"?><svg id="b" xmlns="http://www.w3.org/2000/svg" viewBox="0 0 283.46423 120.91943"><defs><style>.d{fill:#003b90;}</style></defs><g id="c"><path class="d" d="M57.9165,120.91943c-1.0527,0-2.706-.75-3.6069-1.2021-2.2246-1.1114-2.7959-2.1329-4.2691-4.0577l-5.7705-7.6943h-.0908v7.9346c0,1.7451.0313,3.0664,1.3233,4.2988v.0908h-5.8023v-.0908c1.3233-1.2324,1.3535-2.5537,1.3535-4.2988v-10.3692c0-2.3144-.1201-3.1269-1.74359-4.9296v-.0899h6.25239v.0899l9.2271,12.0839v-7.7861c0-1.7422-.0293-3.0654-1.3218-4.2978v-.0899h5.77v.0899c-1.292,1.2324-1.3213,2.5556-1.3213,4.2978v16.0205ZM74.6265,115.89993c0,1.7451.0317,3.0664,1.3242,4.2988v.0908h-8.1465v-.0908c1.4727-.9326,1.2632-2.6748,1.2632-4.2373v-4.6289l-4.479-8.417c-.5112-.9629-.9917-1.7734-1.8945-2.3144v-.0899h6.9736v.0899l3.4873,7.0927,1.6826-3.4258c.2715-.541.6914-1.4423.6914-2.0742,0-.8115-.2998-1.2334-.9311-1.5927v-.0899h5.4101v.0899l-5.3813,10.7314v4.5674ZM101.2915,118.18413c.4805.7822,1.0513,1.5039,1.7437,2.0146v.0908c-6.9439,0-7.3946,0-9.3789-3.4267l-3.1241-5.3809v4.5098c0,1.5625-.2114,3.2744,1.2613,4.207v.0908h-8.0869v-.0908c1.4736-.9326,1.2631-2.6445,1.2631-4.207v-11.1817c0-1.5937.2105-3.2773-1.2631-4.2089v-.0899h8.0869v.0899c-1.4727.9316-1.2613,2.6445-1.2613,4.2089v4.5987l3.7564-4.7813c.5103-.6299,1.3823-1.5322,1.3823-2.4033,0-.7813-.6313-1.292-1.2021-1.623v-.0899h7.3642v.0899l-6.6425,7.9355,6.101,9.6475ZM132.877,119.74753c-2.0733.5713-4.2368.9327-6.4024.9327-6.2519,0-11.3007-3.5469-11.3007-10.2198,0-6.4629,4.9589-10.4297,11.1821-10.4297,1.562,0,3.1553.1797,4.6582.6006v4.1787h-.1509c-1.022-.9619-2.8857-1.5937-4.417-1.5937-3.90919,0-5.5908,2.7353-5.5908,6.3711,0,3.6982,1.292,7.9668,5.6504,7.9668.3901,0,.8115,0,1.20121-.0908v-4.4493c0-1.3505-.05861-2.0722-1.14161-2.916v-.0898h6.3115v9.7392ZM144.5137,115.99173c0,1.5625-.2119,3.2744,1.2617,4.207v.0908h-8.0849v-.0908c1.47261-.9326,1.2631-2.6445,1.2631-4.207v-11.1817c0-1.5644.20951-3.2773-1.2631-4.2089v-.0899h8.8984c1.4726,0,2.6738-.0303,4.0254.6904,1.7744.962,2.67581,2.5557,2.67581,4.5694,0,2.2549-1.59381,3.9082-3.57821,4.75l3.57821,5.9814c.81149,1.3526,1.68359,2.6133,2.88469,3.6065l-4.1445.2705c-2.0166.1201-2.9775-.1504-4.0303-2.0127l-3.4863-6.5537v4.1787ZM144.5137,103.42723v6.793c1.8643-.3301,3.2461-1.9238,3.2461-3.8184,0-.9619-.38969-1.9834-1.2031-2.5537-.5098-.3623-1.14159-.4209-1.7432-.4209h-.2998ZM169.1905,100.03073c6.3095,0,10.9404,3.6661,10.9404,10.2793,0,6.5528-5.1992,10.3702-11.29979,10.3702-6.16211,0-10.94141-3.9991-10.94141-10.3409,0-6.4013,5.1972-10.3086,11.3008-10.3086ZM165.1338,115.08843c.8418,1.4433,2.3438,2.5859,4.0567,2.5859,1.5917,0,3.0351-.8115,3.997-2.1035.9024-1.2041,1.1123-2.7354,1.1123-4.209,0-3.4258-1.3515-8.3262-5.46869-8.3262-3.54891,0-5.11141,3.3965-5.11141,6.4932,0,1.7422.57041,4.0566,1.4141,5.5596ZM196.4229,117.85503c-1.1739,1.7128-3.0059,2.8252-5.2305,2.8252-1.6221,0-3.2158-.5108-4.3887-1.7139-1.3222-1.3819-1.4121-2.8555-1.4121-4.6885v-9.4678c0-1.5644.211-3.2773-1.2627-4.2089v-.0899h7.9961v.0899c-1.4736.9316-1.2636,2.6445-1.2636,4.2089v8.2041c0,1.1729-.0586,2.3155.6611,3.3077.4512.6015,1.2031.9316,1.9541.9316,2.7363,0,2.9463-3.2158,2.9463-5.2305v-7.2129c0-1.5644.209-3.2773-1.2637-4.2089v-.0899h8.0264v.0899c-1.4737.9316-1.2617,2.6445-1.2617,4.2089v11.1817c0,1.5625-.212,3.2744,1.2617,4.207v.0908h-6.7627v-2.4345ZM220.43169,101.23193c-1.5039-.751-3.8409-.7207-5.5215-.7207h-7.0957v.0899c1.4717.9316,1.2627,2.6445,1.2627,4.2089v11.1817c0,1.5625.209,3.2744-1.2627,4.207v.0908h8.0263v-.0908c-1.2929-1.2012-1.3242-2.5537-1.3242-4.2666v-4.0977c4.9043.3985,9.1963-1.9238,9.1963-6.0546,0-2.044-1.4502-3.6446-3.2812-4.5479ZM214.51659,110.72903v-7.2432c2.9512-.1875,3.9473,1.4014,3.9473,3.1992,0,2.6319-2.377,3.9541-3.9473,4.044ZM220.83299,50.25933c12.1328-.0147,25.0733-1.5157,34.7676-4.17.8516-.2314.7637.3438.6133.7852-5.3555,15.8379-33.708,23.7773-62.2822,22.8047l-.0147.1806c5.5303,1.5196,14.127,2.3467,19.1875,2.3282.8027-.002.9463.4531.5703.8506-8.7734,9.3027-24.1826,13.1064-39.9648,13.4863-19.0274.459-40.7915-2.3262-62.2632,4.0381l-.146-.2471c24.2847-14.2842,59.1289-2.3389,86.1377-15.415-13.35739-1.8682-22.9277-5.0088-33.9609-9.7793l-.0459-.127c34.2373,2.4482,62.7968-1.2783,74.18941-10.0283-19.26951,2.4844-47.68061,1.334-65.78511-2.5029l-.0508-.1456c37.2627.1309,71.7597-15.2021,84.8594-31.8339-22.8467,11.3906-86.4073,21.5527-135.7789,27.7089-48.61959,6.0665-87.0771,17.9766-119.831,53.9141H0C33.8799,59.37643,75.5933,45.87553,154.877,35.06393c26.7197-3.6474,94.0869-17.5488,126.1142-34.2939,2.4004-1.2529,3.25491-1.3115,1.6592,2.3965-8.9765,20.8125-33.9736,39.9726-61.8086,46.9765l-.0088.1163ZM127.24511,61.63723c-33.98091-3.6377-66.65181,5.2461-91.31541,18.499l.16941.4981c21.86329-9.5596,54.21489-15.2129,73.96489-13.6788-10.7905,6.1592-22.92289,10.1026-40.1026,11.6221l.0416.1162c2.5795.1797,5.143.3008,7.684.3535,1.2813.6944,2.4878,1.7481,2.9439,2.5723-4.0049,2.3115-9.377,3.1475-15.8423,3.0381l.0352.1016c1.3911.457,2.6318,1.414,3.0898,2.3564-1.9981,1.4951-5.9961,2.6006-10.81449,3.0166l.04149.1162c7.6216,1.1533,13.6558-.2119,15.3653-2.5596-.2695-.6406-.7495-1.2636-1.3662-1.789,6.081.4433,12.9365-.7715,17.4233-4.4405-.6987-.8876-1.9116-1.8779-3.1348-2.4931,15.9742-.711,30.6363-5.0537,41.81691-17.3291Z"/></g></svg>